# xmcd
#
# Track frame offsets: 
#        150
#        15315
#        35658
#        57551
#        84606
#        100574
#        125932
#        157965
#        179818
#        207543
#        235956
#        255693
#
# Disc length: 3754 seconds
#
# Revision: 0
# Processed by: cddbd v1.5.2PL0 Copyright (c) Steve Scherf et al.
# Submitted via: ExactAudioCopy v0.95b3
#
DISCID=a90ea80c
DTITLE=Vanilla Fudge  - Out Through The In Door
DYEAR=1900
DGENRE=
TTITLE0=Immigrant Song
TTITLE1=Ramble On
TTITLE2=Trampled Underfoot
TTITLE3=Dazed and Confused
TTITLE4=Black Mountain Side
TTITLE5=Fool in the Rain
TTITLE6=Babe, I'm Gonna Leave You
TTITLE7=Dancing Days
TTITLE8=Moby Dick
TTITLE9=All of My Love
TTITLE10=Rock and Roll
TTITLE11=Your Time Is Gonna Come
EXTD=
EXTT0=
EXTT1=
EXTT2=
EXTT3=
EXTT4=
EXTT5=
EXTT6=
EXTT7=
EXTT8=
EXTT9=
EXTT10=
EXTT11=
PLAYORDER=
